<svg width="23" height="23" viewBox="0 0 23 23" fill="none" xmlns="http://www.w3.org/2000/svg">
<path d="M0.893388 20.6923C0.502863 21.0828 0.502863 21.716 0.893388 22.1065C1.28391 22.497 1.91708 22.497 2.3076 22.1065L0.893388 20.6923ZM22.3995 1.60042C22.3995 1.04814 21.9518 0.600424 21.3995 0.600424L12.3995 0.600425C11.8472 0.600424 11.3995 1.04814 11.3995 1.60042C11.3995 2.15271 11.8472 2.60042 12.3995 2.60042L20.3995 2.60042L20.3995 10.6004C20.3995 11.1527 20.8472 11.6004 21.3995 11.6004C21.9518 11.6004 22.3995 11.1527 22.3995 10.6004L22.3995 1.60042ZM1.60049 21.3994L2.3076 22.1065L22.1066 2.30753L21.3995 1.60042L20.6924 0.893318L0.893388 20.6923L1.60049 21.3994Z" fill="black"/>
</svg>
